<svg width="232" height="1219" viewBox="0 0 232 1219" fill="none" xmlns="http://www.w3.org/2000/svg">
<path d="M103.5 9.99315C270 33.9998 230.501 146 105.5 160.993" stroke="#0071D1" stroke-opacity="0.59" stroke-width="20"/>
<path d="M118.67 158.779C-47.1306 187.187 -4.67968 298.102 120.67 309.779" stroke="#0071D1" stroke-opacity="0.59" stroke-width="20" stroke-dasharray="20 20"/>
<path d="M118.67 458.779C-47.1306 487.187 -4.67968 598.102 120.67 609.779" stroke="#0071D1" stroke-opacity="0.59" stroke-width="20" stroke-dasharray="20 20"/>
<path d="M118.67 758.779C-47.1306 787.187 -4.67968 898.102 120.67 909.779" stroke="#0071D1" stroke-opacity="0.59" stroke-width="20" stroke-dasharray="20 20"/>
<path d="M118.67 1057.78C-47.1306 1086.19 -4.67968 1197.1 120.67 1208.78" stroke="#0071D1" stroke-opacity="0.59" stroke-width="20" stroke-dasharray="20 20"/>
<path d="M110.669 308.885C276.967 332.894 237.517 444.894 112.669 459.885" stroke="#0071D1" stroke-opacity="0.59" stroke-width="20"/>
<path d="M110.669 608.885C276.967 632.894 237.517 744.894 112.669 759.885" stroke="#0071D1" stroke-opacity="0.59" stroke-width="20"/>
<path d="M110.669 907.885C276.967 931.894 237.517 1043.89 112.669 1058.88" stroke="#0071D1" stroke-opacity="0.59" stroke-width="20"/>
</svg>
