<svg width="18" height="18" viewBox="0 0 18 18" fill="none" xmlns="http://www.w3.org/2000/svg">
<path d="M9 4.51782C11.4609 4.51782 13.4922 6.54907 13.4922 9.01001C13.4922 11.51 11.4609 13.5022 9 13.5022C6.5 13.5022 4.50781 11.51 4.50781 9.01001C4.50781 6.54907 6.5 4.51782 9 4.51782ZM9 11.9397C10.6016 11.9397 11.8906 10.6506 11.8906 9.01001C11.8906 7.40845 10.6016 6.11938 9 6.11938C7.35938 6.11938 6.07031 7.40845 6.07031 9.01001C6.07031 10.6506 7.39844 11.9397 9 11.9397ZM14.7031 4.36157C14.7031 4.94751 14.2344 5.41626 13.6484 5.41626C13.0625 5.41626 12.5938 4.94751 12.5938 4.36157C12.5938 3.77563 13.0625 3.30688 13.6484 3.30688C14.2344 3.30688 14.7031 3.77563 14.7031 4.36157ZM17.6719 5.41626C17.75 6.86157 17.75 11.1975 17.6719 12.6428C17.5938 14.0491 17.2812 15.26 16.2656 16.3147C15.25 17.3303 14 17.6428 12.5938 17.7209C11.1484 17.7991 6.8125 17.7991 5.36719 17.7209C3.96094 17.6428 2.75 17.3303 1.69531 16.3147C0.679688 15.26 0.367188 14.0491 0.289062 12.6428C0.210938 11.1975 0.210938 6.86157 0.289062 5.41626C0.367188 4.01001 0.679688 2.76001 1.69531 1.74438C2.75 0.72876 3.96094 0.41626 5.36719 0.338135C6.8125 0.26001 11.1484 0.26001 12.5938 0.338135C14 0.41626 15.25 0.72876 16.2656 1.74438C17.2812 2.76001 17.5938 4.01001 17.6719 5.41626ZM15.7969 14.1663C16.2656 13.0334 16.1484 10.2991 16.1484 9.01001C16.1484 7.76001 16.2656 5.02563 15.7969 3.85376C15.4844 3.11157 14.8984 2.48657 14.1562 2.21313C12.9844 1.74438 10.25 1.86157 9 1.86157C7.71094 1.86157 4.97656 1.74438 3.84375 2.21313C3.0625 2.52563 2.47656 3.11157 2.16406 3.85376C1.69531 5.02563 1.8125 7.76001 1.8125 9.01001C1.8125 10.2991 1.69531 13.0334 2.16406 14.1663C2.47656 14.9475 3.0625 15.5334 3.84375 15.8459C4.97656 16.3147 7.71094 16.1975 9 16.1975C10.25 16.1975 12.9844 16.3147 14.1562 15.8459C14.8984 15.5334 15.5234 14.9475 15.7969 14.1663Z" fill="#1F2937"/>
</svg>
