<svg width="18" height="18" viewBox="0 0 18 18" fill="none" xmlns="http://www.w3.org/2000/svg">
<path d="M4.15625 17.51H0.523438V5.83032H4.15625V17.51ZM2.32031 4.26782C1.1875 4.26782 0.25 3.29126 0.25 2.11938C0.25 0.986572 1.1875 0.0490723 2.32031 0.0490723C3.49219 0.0490723 4.42969 0.986572 4.42969 2.11938C4.42969 3.29126 3.49219 4.26782 2.32031 4.26782ZM17.7109 17.51H14.1172V11.8459C14.1172 10.4788 14.0781 8.76001 12.2031 8.76001C10.3281 8.76001 10.0547 10.2053 10.0547 11.7288V17.51H6.42188V5.83032H9.89844V7.43188H9.9375C10.4453 6.53345 11.6172 5.55688 13.375 5.55688C17.0469 5.55688 17.75 7.97876 17.75 11.1038V17.51H17.7109Z" fill="#1F2937"/>
</svg>
