<svg width="38" height="42" viewBox="0 0 38 42" fill="none" xmlns="http://www.w3.org/2000/svg">
<path d="M21.7143 1.5H4.07146C3.35159 1.5 2.6612 1.81607 2.15217 2.37868C1.64315 2.94129 1.35718 3.70435 1.35718 4.5V37.5C1.35718 38.2956 1.64315 39.0587 2.15217 39.6213C2.6612 40.1839 3.35159 40.5 4.07146 40.5H28.5C29.2199 40.5 29.9103 40.1839 30.4193 39.6213C30.9284 39.0587 31.2143 38.2956 31.2143 37.5V24M1.35718 31.5H31.2143M9.50004 9H14.9286M9.50004 16.5H12.2143" stroke="#85B6FF" stroke-width="3" stroke-linecap="round" stroke-linejoin="round"/>
<path d="M24.4124 22.5179L16.2695 24.1379L17.6267 15.0179L29.1081 2.38788C29.3604 2.1067 29.6606 1.88352 29.9914 1.73121C30.3222 1.5789 30.6769 1.50049 31.0352 1.50049C31.3936 1.50049 31.7483 1.5789 32.0791 1.73121C32.4099 1.88352 32.7101 2.1067 32.9624 2.38788L35.8395 5.56788C36.0946 5.84636 36.2971 6.17803 36.4353 6.54367C36.5735 6.9093 36.6447 7.30162 36.6447 7.69788C36.6447 8.09415 36.5735 8.48647 36.4353 8.8521C36.2971 9.21773 36.0946 9.5494 35.8395 9.82788L24.4124 22.5179Z" stroke="#85B6FF" stroke-width="3" stroke-linecap="round" stroke-linejoin="round"/>
</svg>
