<svg width="11" height="13" viewBox="0 0 11 13" fill="none" xmlns="http://www.w3.org/2000/svg">
<path d="M2.21222 5.62611C3.09222 7.67 4.51 9.33833 6.23944 10.3856L7.58389 8.79667C7.74889 8.60167 7.99333 8.53667 8.20722 8.62333C8.89167 8.89056 9.63111 9.035 10.3889 9.035C10.725 9.035 11 9.36 11 9.75722V12.2778C11 12.675 10.725 13 10.3889 13C4.65056 13 0 7.50389 0 0.722222C0 0.325 0.275 0 0.611111 0H2.75C3.08611 0 3.36111 0.325 3.36111 0.722222C3.36111 1.625 3.48333 2.49167 3.70944 3.30056C3.77667 3.55333 3.72778 3.835 3.55667 4.03722L2.21222 5.62611Z" fill="#8E8B8B"/>
</svg>
